<?xml version="1.0" encoding="utf-8"?>
<!-- Generator: Adobe Illustrator 26.0.1, SVG Export Plug-In . SVG Version: 6.00 Build 0)  -->
<svg version="1.1" id="Layer_1" xmlns="http://www.w3.org/2000/svg" xmlns:xlink="http://www.w3.org/1999/xlink" x="0px" y="0px"
	 viewBox="-707.749 -207.316 243.36 251.186" enable-background="new -707.749 -207.316 243.36 251.186" xml:space="preserve">
<rect x="-707.749" y="-207.316" fill="#FFFFFF" width="243.36" height="251.186"/>
<g>
	<g>
		<path fill-rule="evenodd" clip-rule="evenodd" d="M-532.14-112.022c2.779-9.654,0.617-14.437-10.121-15.198
			c-19.309-1.377-47.989,11.715-67.423,26.041c4.102,7.795,8.125,15.658,12.171,23.331c0.392,0.729,0.975,1.882,1.647,3.125
			c1.311-3.359,2.611-7.056,4.023-10.014c5.167-10.931,19.859-36.435,33.464-35.706c26.248,1.411,23.3,73.956,19.972,92.729
			c-0.874,4.951-5.032,26.859-14.603,17.764l-2.252-2.71c4.18,4.167,7.866,6.63,10.793-0.012
			c8.046-18.313,1.613-72.881-8.708-90.634c-5.682-9.79-8.36-6.183-15.096,2.105c-11.029,13.576-12.722,20.185-19.277,35.506
			c-2.588,6.047-7.587,9.364-12.944,4.323c-3.205-3.013-14.637-26.131-17.551-31.631c-0.157-0.29-0.336-0.616-0.516-0.963
			c-1.389,1.266-2.69,2.52-3.878,3.752c-3.867,4.032-7.386,8.108-9.616,12.679c-0.459,7.684-1.244,16.924-3.418,19.982
			c-2.073,2.901-8.35,2.263-9.694-3.08c-1.692-6.766-0.751-13.273,1.815-19.288c1.3-16.655,3.384-38.866,7.744-44.757
			c4.405-5.959,10.479-4.088,13.964,1.837c2.555,4.335,5.032,8.77,7.475,13.261c19.735-11.503,56.227-25.089,75.627-19.075
			C-529.26-125.786-528.946-120.164-532.14-112.022L-532.14-112.022z M-623.502-103.397c-1.602-3.024-3.283-6.148-4.774-8.803
			c-0.919,4.267-1.636,9.733-2.185,14.684C-628.22-99.634-625.878-101.604-623.502-103.397L-623.502-103.397z"/>
	</g>
	<g>
		<path fill-rule="evenodd" clip-rule="evenodd" d="M-609.683-101.179c-4.158,2.562-8.106,6.043-11.776,9.987
			c0.918-0.917,1.875-1.84,2.9-2.774c0.179,0.347,0.358,0.673,0.516,0.963c1.185,2.237,3.78,7.391,6.658,12.92
			c2.629-3.783,5.148-7.419,7.251-10.456C-605.976-94.084-607.82-97.638-609.683-101.179z"/>
		<path fill-rule="evenodd" clip-rule="evenodd" d="M-643.609-57.745c2.403,2.55,6.53,2.442,8.138,0.192
			c2.174-3.058,2.959-12.298,3.418-19.982c0.096-0.196,0.207-0.387,0.308-0.582C-636.832-70.643-640.906-63.145-643.609-57.745z"/>
	</g>
</g>
</svg>
